<?xml version="1.0" encoding="utf-8"?>
<!-- Generator: Adobe Illustrator 23.1.0, SVG Export Plug-In . SVG Version: 6.00 Build 0)  -->
<svg version="1.1" id="Layer_1" xmlns="http://www.w3.org/2000/svg" xmlns:xlink="http://www.w3.org/1999/xlink" x="0px" y="0px"
	 viewBox="0 0 595.28 841.89" style="enable-background:new 0 0 595.28 841.89;" xml:space="preserve">
<style type="text/css">
	.st0{fill:#FFFFFF;}
</style>
<path class="st0" d="M354.48,402.15c0.14-0.1,0.45-0.34,0.88-0.71c0.15-0.13,1.24-1.1,2.19-2.36c1.37-1.82,1.62-3.15,2.85-5.27
	c1.55-2.65,2.17-2.28,3.51-4.61c0.52-0.91,1.75-3.1,1.98-5.93c0.35-4.48-2.06-7.45-0.66-8.78c0.69-0.65,1.48-0.14,2.2-0.88
	c1.03-1.07,0.34-3.18-0.22-5.27c-1.64-6.12-0.41-5.84-1.76-9.44c-1.41-3.77-2.25-2.74-5.05-8.12c-2.36-4.54-2.63-6.95-5.05-7.9
	c-1.31-0.52-1.83-0.05-3.95-0.88c-1.5-0.59-2.67-1.38-4.06-2.33c-1.44-0.99-2.16-1.62-2.75-2.06c-3.27-2.45-5.91-1.64-15.78-4.19
	c-0.66-0.17-1.14-0.3-1.56-0.42c-6.11-1.67-10.09-3.21-11.63-3.73c-3.6-1.21-5.25-0.69-14.27-0.66c-7.43,0.03-5.19-0.33-28.32-0.88
	c-5.2-0.12-8.43-0.17-12.73,0.88c-4.46,1.09-4.64,2.05-9.22,2.85c-4.82,0.85-6.34,0.09-10.76,1.54c-1.72,0.56-2.09,0.87-5.27,1.98
	c-3.11,1.08-5.19,1.63-6.37,1.98c-4.93,1.45-11.17,3.29-15.37,8.12c-2.26,2.6-2.76,4.72-6.15,7.02c-2.21,1.5-2.65,1.04-4.17,2.2
	c-2.27,1.72-2.18,3.41-5.05,13.39c-1.13,3.92-2.35,7.87-1.54,11.2c0.06,0.23,0.2,0.77,0.58,2.28c0.49,1.92,0.92,3.69,1.34,5.41
	c0.27,1.11,0.25,1.02,0.27,1.1c0.65,2.53,1.18,4.59,2.2,6.37c1.28,2.23,3.04,3.51,3.95,4.17c1.93,1.4,2.88,1.39,4.83,3.07
	c0.67,0.58,1.66,1.44,2.41,2.63c1.47,2.33,1.26,4.72,1.1,8.12c-0.17,3.64-0.24,7.18-0.22,9.22c0.05,5.53,0.75,6.51,0.88,12.51
	c0.07,3.27-0.13,3.1-0.22,7.9c-0.18,10.31,0.64,17.75,0.88,19.76c0.62,5.22,0.84,4.18,1.32,8.56c1.34,12.26-1.32,12.02,0.22,19.98
	c0,0,2.06,10.64,1.15,15.5c0,0.02-0.03,0.14-0.06,0.31c-0.52,2.95-1.02,5.82-0.22,7.24c0.61,1.07,2.02,1.45,8.34,1.54
	c5.2,0.07,9.31-0.13,11.63-0.22c4.98-0.2,7.5-0.3,10.76-0.22c6.35,0.16,6.96,0.8,14.27,1.1c5.09,0.21,7.64,0.31,10.32,0
	c2.82-0.33,6.78-1.07,12.73-1.32c0.15-0.01,0.27-0.01,0.3-0.01c5.25-0.2,9.05,0.13,10.46,0.23c5.36,0.38,5.07-0.55,12.73-0.44
	c5.05,0.07,5.12,0.48,11.63,0.66c1.89,0.05,1.79,0.02,9.88,0c4.49-0.01,8.31-0.02,12.95,0c6.94,0.02,7.02,0.07,9,0
	c6.23-0.23,6.17-0.72,10.1-0.66c5.36,0.09,5.64,1.01,10.76,0.88c2.47-0.06,1.89-0.27,7.46-0.66c3.33-0.23,6.3-0.36,8.34-0.44
	c2.38-0.1,5.93-0.22,5.93-0.22c0,0,1.73,1.08,2.41,0.66c0.58-0.35,0.67-1.94,0-2.85c-1.11-1.52-4.02-0.84-7.46-0.44
	c-4.36,0.51-8.78-0.07-13.17,0c-8.75,0.13-8.5,0.19-12.95,0.22c-7.28,0.05-7.25-0.11-11.41,0c-7.41,0.2-7.49,0.7-13.83,0.88
	c-2.28,0.06-6.82-0.1-15.8-0.44c-8.54-0.32-9.51-0.41-12.95-0.44c-3.18-0.03-4.8,0.02-12.29,0.22c-22.6,0.59-21.8,0.49-23.71,0.66
	c-3.69,0.33-7.28,0.79-12.73,0.66c-3.63-0.09-6.94-0.41-7.24-0.44c-5.5-0.54-7.08-1.18-11.85-1.32c-2.02-0.06-4.33-0.01-5.05,0
	c-2.21,0.04-3.35,0.07-4.83,0.22c-2.85,0.3-2.6,0.6-4.39,0.66c-2.96,0.1-5.93-0.66-5.93-0.66c-0.04-0.01-1.57-0.2-2.2-0.66
	c-1.45-1.07-0.25-5.2,0.66-8.34c0.94-3.26,1.29-3.21,1.32-4.61c0.05-2.57-1.12-3.21-1.1-6.15c0.01-1.55,0.34-1.62,0.66-4.17
	c0.23-1.84,0.23-3.14,0.22-5.49c-0.02-4.23-0.03-6.58-0.66-9.66c-0.5-2.47-0.74-2.17-1.32-5.05c-0.56-2.79-0.73-5.09-0.88-7.02
	c-0.16-2.13-0.19-3.77-0.22-5.49c-0.06-3.43,0.07-3.42,0-5.05c-0.2-5.01-1.45-5.78-1.76-11.2c-0.06-0.98-0.14-2.54,0-4.61
	c0.18-2.61,0.56-3.54,0.66-5.93c0.07-1.75-0.08-2.51-0.22-4.61c-0.04-0.57-0.34-5.21,0-10.32c0.33-4.96,0.98-6.11,0-8.12
	c-0.54-1.1-1.53-1.98-3.51-3.73c-2.99-2.64-4.17-2.98-6.15-4.83c-2.24-2.09-3.44-4.19-4.17-5.49c0,0-3.44-6.1-3.29-13.83
	c0.02-1.28,0.16-2.81,0.22-3.51c0.22-2.5,0.36-3.99,0.88-5.71c0.28-0.93,0.52-1.41,1.54-3.51c3.46-7.15,3.48-7.37,4.17-8.12
	c0.37-0.4,1.93-1.51,5.05-3.73c3.74-2.66,3.79-2.58,4.61-3.29c3.42-2.97,2.64-4.38,5.05-6.37c2.65-2.18,4.5-1.2,11.2-3.07
	c3.53-0.99,3.04-1.27,7.24-2.63c7.31-2.38,13.73-3.13,19.1-3.73c2.91-0.33,2.52-0.19,7.02-0.66c6.5-0.68,9.9-1.25,12.29-1.54
	c4.34-0.53,10.13-0.07,21.51,0.88c9.18,0.76,13.77,1.14,17.56,1.76c8.46,1.37,14.36,3.14,20.63,5.05c9.58,2.91,14.42,4.43,16.9,7.46
	c0.73,0.89,2.54,4.55,6.15,11.85c2.22,4.49,3.33,6.76,3.51,7.46c0.5,1.98,0.38,2.91-1.76,16.9c-0.45,2.96-0.82,5.22-2.2,7.9
	c-1.08,2.1-2.46,3.84-3.07,4.61c-1.8,2.27-3.5,3.8-4.83,6.8c-0.72,1.62-0.61,2.06-0.44,2.2
	C352.12,403.87,354.02,402.48,354.48,402.15z"/>
<path class="st0" d="M354.48,402.15c0.14-0.1,0.45-0.34,0.88-0.71c0.15-0.13,1.24-1.1,2.19-2.36c1.37-1.82,1.62-3.15,2.85-5.27
	c1.55-2.65,2.17-2.28,3.51-4.61c0.52-0.91,1.75-3.1,1.98-5.93c0.35-4.48-2.06-7.45-0.66-8.78c0.69-0.65,1.48-0.14,2.2-0.88
	c1.03-1.07,0.34-3.18-0.22-5.27c-1.64-6.12-0.41-5.84-1.76-9.44c-1.41-3.77-2.25-2.74-5.05-8.12c-2.36-4.54-2.63-6.95-5.05-7.9
	c-1.31-0.52-1.83-0.05-3.95-0.88c-1.5-0.59-2.67-1.38-4.06-2.33c-1.44-0.99-2.16-1.62-2.75-2.06c-3.27-2.45-5.91-1.64-15.78-4.19
	c-0.66-0.17-1.14-0.3-1.56-0.42c-6.11-1.67-10.09-3.21-11.63-3.73c-3.6-1.21-5.25-0.69-14.27-0.66c-7.43,0.03-5.19-0.33-28.32-0.88
	c-5.2-0.12-8.43-0.17-12.73,0.88c-4.46,1.09-4.64,2.05-9.22,2.85c-4.82,0.85-6.34,0.09-10.76,1.54c-1.72,0.56-2.09,0.87-5.27,1.98
	c-3.11,1.08-5.19,1.63-6.37,1.98c-4.93,1.45-11.17,3.29-15.37,8.12c-2.26,2.6-2.76,4.72-6.15,7.02c-2.21,1.5-2.65,1.04-4.17,2.2
	c-2.27,1.72-2.18,3.41-5.05,13.39c-1.13,3.92-2.35,7.87-1.54,11.2c0.06,0.23,0.2,0.77,0.58,2.28c0.49,1.92,0.92,3.69,1.34,5.41
	c0.27,1.11,0.25,1.02,0.27,1.1c0.65,2.53,1.18,4.59,2.2,6.37c1.28,2.23,3.04,3.51,3.95,4.17c1.93,1.4,2.88,1.39,4.83,3.07
	c0.67,0.58,1.66,1.44,2.41,2.63c1.47,2.33,1.26,4.72,1.1,8.12c-0.17,3.64-0.24,7.18-0.22,9.22c0.05,5.53,0.75,6.51,0.88,12.51
	c0.07,3.27-0.13,3.1-0.22,7.9c-0.18,10.31,0.64,17.75,0.88,19.76c0.62,5.22,0.84,4.18,1.32,8.56c1.34,12.26-1.32,12.02,0.22,19.98
	c0,0,2.06,10.64,1.15,15.5c0,0.02-0.03,0.14-0.06,0.31c-0.52,2.95-1.02,5.82-0.22,7.24c0.61,1.07,2.02,1.45,8.34,1.54
	c5.2,0.07,9.31-0.13,11.63-0.22c4.98-0.2,7.5-0.3,10.76-0.22c6.35,0.16,6.96,0.8,14.27,1.1c5.09,0.21,7.64,0.31,10.32,0
	c2.82-0.33,6.78-1.07,12.73-1.32c0.15-0.01,0.27-0.01,0.3-0.01c5.25-0.2,9.05,0.13,10.46,0.23c5.36,0.38,5.07-0.55,12.73-0.44
	c5.05,0.07,5.12,0.48,11.63,0.66c1.89,0.05,1.79,0.02,9.88,0c4.49-0.01,8.31-0.02,12.95,0c6.94,0.02,7.02,0.07,9,0
	c6.23-0.23,6.17-0.72,10.1-0.66c5.36,0.09,5.64,1.01,10.76,0.88c2.47-0.06,1.89-0.27,7.46-0.66c3.33-0.23,6.3-0.36,8.34-0.44
	c2.38-0.1,5.93-0.22,5.93-0.22c0,0,1.73,1.08,2.41,0.66c0.58-0.35,0.67-1.94,0-2.85c-1.11-1.52-4.02-0.84-7.46-0.44
	c-4.36,0.51-8.78-0.07-13.17,0c-8.75,0.13-8.5,0.19-12.95,0.22c-7.28,0.05-7.25-0.11-11.41,0c-7.41,0.2-7.49,0.7-13.83,0.88
	c-2.28,0.06-6.82-0.1-15.8-0.44c-8.54-0.32-9.51-0.41-12.95-0.44c-3.18-0.03-4.8,0.02-12.29,0.22c-22.6,0.59-21.8,0.49-23.71,0.66
	c-3.69,0.33-7.28,0.79-12.73,0.66c-3.63-0.09-6.94-0.41-7.24-0.44c-5.5-0.54-7.08-1.18-11.85-1.32c-2.02-0.06-4.33-0.01-5.05,0
	c-2.21,0.04-3.35,0.07-4.83,0.22c-2.85,0.3-2.6,0.6-4.39,0.66c-2.96,0.1-5.93-0.66-5.93-0.66c-0.04-0.01-1.57-0.2-2.2-0.66
	c-1.45-1.07-0.25-5.2,0.66-8.34c0.94-3.26,1.29-3.21,1.32-4.61c0.05-2.57-1.12-3.21-1.1-6.15c0.01-1.55,0.34-1.62,0.66-4.17
	c0.23-1.84,0.23-3.14,0.22-5.49c-0.02-4.23-0.03-6.58-0.66-9.66c-0.5-2.47-0.74-2.17-1.32-5.05c-0.56-2.79-0.73-5.09-0.88-7.02
	c-0.16-2.13-0.19-3.77-0.22-5.49c-0.06-3.43,0.07-3.42,0-5.05c-0.2-5.01-1.45-5.78-1.76-11.2c-0.06-0.98-0.14-2.54,0-4.61
	c0.18-2.61,0.56-3.54,0.66-5.93c0.07-1.75-0.08-2.51-0.22-4.61c-0.04-0.57-0.34-5.21,0-10.32c0.33-4.96,0.98-6.11,0-8.12
	c-0.54-1.1-1.53-1.98-3.51-3.73c-2.99-2.64-4.17-2.98-6.15-4.83c-2.24-2.09-3.44-4.19-4.17-5.49c0,0-3.44-6.1-3.29-13.83
	c0.02-1.28,0.16-2.81,0.22-3.51c0.22-2.5,0.36-3.99,0.88-5.71c0.28-0.93,0.52-1.41,1.54-3.51c3.46-7.15,3.48-7.37,4.17-8.12
	c0.37-0.4,1.93-1.51,5.05-3.73c3.74-2.66,3.79-2.58,4.61-3.29c3.42-2.97,2.64-4.38,5.05-6.37c2.65-2.18,4.5-1.2,11.2-3.07
	c3.53-0.99,3.04-1.27,7.24-2.63c7.31-2.38,13.73-3.13,19.1-3.73c2.91-0.33,2.52-0.19,7.02-0.66c6.5-0.68,9.9-1.25,12.29-1.54
	c4.34-0.53,10.13-0.07,21.51,0.88c9.18,0.76,13.77,1.14,17.56,1.76c8.46,1.37,14.36,3.14,20.63,5.05c9.58,2.91,14.42,4.43,16.9,7.46
	c0.73,0.89,2.54,4.55,6.15,11.85c2.22,4.49,3.33,6.76,3.51,7.46c0.5,1.98,0.38,2.91-1.76,16.9c-0.45,2.96-0.82,5.22-2.2,7.9
	c-1.08,2.1-2.46,3.84-3.07,4.61c-1.8,2.27-3.5,3.8-4.83,6.8c-0.72,1.62-0.61,2.06-0.44,2.2
	C352.12,403.87,354.02,402.48,354.48,402.15z"/>
<path class="st0" d="M290.6,403.76c-0.55-1.45,1.81-4.13,2.05-4.39c0.71-0.8,1.14-1,1.61-1.9c0.64-1.23,0.39-1.87,1.02-2.34
	c0.7-0.51,1.27,0.08,2.49-0.44c0.35-0.15,1.16-0.49,1.46-1.32c0.25-0.68,0.14-1.65-0.44-2.05c-0.85-0.59-2.29,0.36-2.63,0.59
	c-0.91,0.6-0.79,0.98-1.9,1.9c-0.23,0.19-0.29,0.22-2.05,1.32c-1.29,0.81-1.94,1.21-2.05,1.32c-0.49,0.47-0.48,0.66-1.76,2.93
	c-0.49,0.86-0.73,1.29-1.02,1.76c-0.73,1.15-1.6,2.33-1.61,2.34c0,0-0.84,0.77-1.17,1.02c-0.84,0.64-1.82,0.58-3.07,0.59
	c-1.37,0.01-2.73,0.23-4.1,0.29c-2.67,0.12-5.3,0.24-8.2,1.17c-1.8,0.58-1.5,0.76-3.95,1.61c-3.54,1.22-3.81,0.71-5.56,1.61
	c-2.16,1.11-1.65,1.83-4.98,4.1c-0.49,0.33-1.6,1.06-3.07,2.2c-0.74,0.57-1.11,0.85-1.46,1.17c-0.6,0.54-1.05,1.05-2.78,3.37
	c-0.71,0.95-0.57,0.78-2.05,2.78c-1.09,1.47-1.22,1.65-1.61,2.2c-0.39,0.56-0.55,0.8-1.76,2.63c-1.68,2.54-1.71,2.59-1.9,2.93
	c-0.53,0.95-1.06,1.89-1.46,3.22c-0.44,1.46-0.13,1.43-0.59,3.22c-0.18,0.72-2.38,6.82-1.32,3.8c0,0-0.61,2.34-0.88,4.39
	c-0.22,1.69-0.01,1.77-0.15,3.66c-0.22,3.13-0.83,3.69-1.32,7.61c-0.23,1.81-0.34,2.72-0.29,3.66c0.14,2.79,1.04,3.93,0.73,6.44
	c-0.05,0.37-0.14,0.92-0.15,1.76c-0.02,1.51,0.24,2.56,0.29,2.78c0.22,0.87,0.47,1.27,0.88,2.2c1.22,2.72,0.82,3.12,1.9,5.27
	c0.41,0.82,0.81,1.43,1.61,2.63c0.77,1.17,1.27,1.92,2.05,2.78c1.08,1.2,1.27,1.02,2.2,2.05c1.42,1.57,1.13,2.13,2.34,3.51
	c0.72,0.81,0.98,0.8,3.37,2.49c0.68,0.48,1.63,1.2,3.51,2.63c4.11,3.12,4.05,3.25,4.98,3.66c1.75,0.77,1.96,0.31,4.68,1.32
	c2.29,0.84,1.95,1.1,3.66,1.61c2.27,0.68,3.08,0.29,5.41,1.17c1.26,0.47,1,0.58,2.2,1.02c0.65,0.25,2.31,0.81,6,0.88
	c1.01,0.02,2.1-0.04,4.24-0.15c2.93-0.15,5.19-0.32,6.59-0.44c2.95-0.24,4.43-0.36,5.71-0.59c1.24-0.21,3.04-0.54,5.27-1.32
	c1.53-0.54,2.73-1.14,5.12-2.34c1.23-0.62,2.94-1.48,5.12-2.78c2.14-1.27,3.24-1.93,4.68-3.07c2.25-1.79,3.69-3.46,4.1-3.95
	c1.26-1.5,2.06-2.79,3.22-4.68c1.29-2.09,1.46-2.67,2.63-4.24c0.74-1,1.01-1.22,1.46-2.05c0.61-1.12,0.94-2.23,1.32-3.51
	c0.36-1.2,0.29-1.25,0.59-2.05c0.37-1.02,0.62-1.34,1.02-2.34c0.29-0.73,0.43-1.23,0.73-2.34c1.3-4.77,1.2-4.38,1.32-4.83
	c0.7-2.72,1.05-4.08,1.17-4.98c0.2-1.45,0.24-2.63,0.29-4.1c0.06-1.78,0.09-2.67,0-3.8c-0.21-2.66-0.76-2.91-1.02-5.71
	c-0.19-1.99,0.08-1.94-0.15-3.8c-0.26-2.18-0.82-3.82-1.17-4.83c-0.92-2.64-1.4-2.74-2.2-5.12c-0.73-2.18-0.38-2.29-1.02-4.54
	c-0.96-3.33-2.46-5.68-3.07-6.59c-1.44-2.12-2.89-3.44-4.24-4.68c-1.07-0.98-2.37-1.97-4.98-3.95c-1.89-1.43-2.83-2.15-3.37-2.49
	c-0.54-0.34-2.66-1.63-7.17-2.78c-3.58-0.92-7.1-1.34-9.37-1.61C292.67,404.76,290.99,404.78,290.6,403.76z"/>
</svg>
